{
  "accessors": [
    {
      "bufferView": 2,
      "componentType": 5126,
      "count": 6253,
      "max": [
        4.043710231781006,
        17.68001937866211,
        1.8027263879776
      ],
      "min": [
        -4.043711185455322,
        0.006860159337520599,
        -1.9548418521881104
      ],
      "type": "VEC3"
    },
    {
      "bufferView": 2,
      "byteOffset": 75036,
      "componentType": 5126,
      "count": 6253,
      "max": [
        1.0,
        1.0,
        1.0
      ],
      "min": [
        -1.0,
        -1.0,
        -1.0
      ],
      "type": "VEC3"
    },
    {
      "bufferView": 1,
      "componentType": 5126,
      "count": 6253,
      "max": [
        0.9946190714836121,
        0.9956496953964233
      ],
      "min": [
        0.0033539757132530212,
        0.004378943238407373
      ],
      "type": "VEC2"
    },
    {
      "bufferView": 1,
      "byteOffset": 50024,
      "componentType": 5126,
      "count": 6253,
      "max": [
        0.9946190714836121,
        0.9956496953964233
      ],
      "min": [
        0.0033539757132530212,
        0.004378943238407373
      ],
      "type": "VEC2"
    },
    {
      "bufferView": 0,
      "componentType": 5125,
      "count": 30594,
      "type": "SCALAR"
    }
  ],
  "asset": {
    "extras": {
      "author": "Jo Kawaguchi (https://sketchfab.com/jobog)",
      "license": "CC-BY-4.0 (http://creativecommons.org/licenses/by/4.0/)",
      "source": "https://sketchfab.com/3d-models/robo-ap-x1-6ef778b5c07f4b29b1d4fa1cf391e86f",
      "title": "Robo AP-X1"
    },
    "generator": "Sketchfab-12.66.0",
    "version": "2.0"
  },
  "bufferViews": [
    {
      "buffer": 0,
      "byteLength": 122376,
      "name": "floatBufferViews",
      "target": 34963
    },
    {
      "buffer": 0,
      "byteLength": 100048,
      "byteOffset": 122376,
      "byteStride": 8,
      "name": "floatBufferViews",
      "target": 34962
    },
    {
      "buffer": 0,
      "byteLength": 150072,
      "byteOffset": 222424,
      "byteStride": 12,
      "name": "floatBufferViews",
      "target": 34962
    }
  ],
  "buffers": [
    {
      "byteLength": 372496,
      "uri": "scene.bin"
    }
  ],
  "images": [
    {
      "uri": "textures/blinn1_baseColor.jpeg"
    },
    {
      "uri": "textures/blinn1_emissive.jpeg"
    }
  ],
  "materials": [
    {
      "doubleSided": true,
      "emissiveFactor": [
        1.0,
        1.0,
        1.0
      ],
      "emissiveTexture": {
        "index": 1
      },
      "name": "blinn1",
      "pbrMetallicRoughness": {
        "baseColorTexture": {
          "index": 0
        },
        "metallicFactor": 0.0,
        "roughnessFactor": 0.4590320122
      }
    }
  ],
  "meshes": [
    {
      "name": "Robo_AP_X1_blinn1_0",
      "primitives": [
        {
          "attributes": {
            "NORMAL": 1,
            "POSITION": 0,
            "TEXCOORD_0": 2,
            "TEXCOORD_1": 3
          },
          "indices": 4,
          "material": 0,
          "mode": 4
        }
      ]
    }
  ],
  "nodes": [
    {
      "children": [
        1
      ],
      "matrix": [
        0.10526315867900848,
        0.0,
        0.0,
        0.0,
        0.0,
        2.337311648204132e-17,
        -0.10526315867900848,
        0.0,
        0.0,
        0.10526315867900848,
        2.337311648204132e-17,
        0.0,
        0.0,
        0.0,
        0.0,
        1.0
      ],
      "name": "Sketchfab_model"
    },
    {
      "children": [
        2
      ],
      "matrix": [
        1.0,
        0.0,
        0.0,
        0.0,
        0.0,
        0.0,
        1.0,
        0.0,
        0.0,
        -1.0,
        0.0,
        0.0,
        0.0,
        0.0,
        0.0,
        1.0
      ],
      "name": "f354c5d3cff347e4bbe07d451ec77527.fbx"
    },
    {
      "children": [
        3
      ],
      "name": "RootNode"
    },
    {
      "children": [
        4
      ],
      "name": "Robo_AP_X1"
    },
    {
      "mesh": 0,
      "name": "Robo_AP_X1_blinn1_0"
    }
  ],
  "samplers": [
    {
      "magFilter": 9729,
      "minFilter": 9987,
      "wrapS": 10497,
      "wrapT": 10497
    }
  ],
  "scene": 0,
  "scenes": [
    {
      "name": "Sketchfab_Scene",
      "nodes": [
        0
      ]
    }
  ],
  "textures": [
    {
      "sampler": 0,
      "source": 0
    },
    {
      "sampler": 0,
      "source": 1
    }
  ]
}
